# xmcd
#
# Track frame offsets: 
#        150
#        12354
#        26140
#        39598
#        59054
#        79332
#        90310
#        106468
#        116785
#        129933
#        147679
#        161311
#        172425
#        183136
#        198503
#
# Disc length: 2860 seconds
#
# Revision: 0
# Processed by: cddbd v1.5.2PL0 Copyright (c) Steve Scherf et al.
# Submitted via: ExactAudioCopyFreeDBPlugin 1.0
#
DISCID=d60b2a0f
DTITLE=Patsy Cline - Patsy Cline and Friends
DYEAR=1900
DGENRE=Country
TTITLE0=Crazy
TTITLE1=A Church, A Courtroom And Then Goodbye
TTITLE2=That Wonderful Someone
TTITLE3=There She Goes
TTITLE4=If I Could Only Stay Asleep
TTITLE5=I Cried All The Way To The Altar
TTITLE6=Crazy Dreams
TTITLE7=Too Many Secrets
TTITLE8=Life's A Railway To Heaven
TTITLE9=Just Out Of Reach
TTITLE10=How Can I Face Tommorow
TTITLE11=Stop The World
TTITLE12=I Can See An Angel
TTITLE13=Walkin' After Midnight
TTITLE14=Hungry For Love
EXTD=
EXTT0=
EXTT1=
EXTT2=
EXTT3=
EXTT4=
EXTT5=
EXTT6=
EXTT7=
EXTT8=
EXTT9=
EXTT10=
EXTT11=
EXTT12=
EXTT13=
EXTT14=
PLAYORDER=
